<svg width="75" height="72" viewBox="0 0 75 72" fill="none" xmlns="http://www.w3.org/2000/svg">
<path d="M29.7 65H45.7V41.2H29.7C29.7 41.2 29.7 65 29.7 65ZM32.5999 44.0999H42.7V62.0999H32.5999V44.0999Z" fill="#81B3D2"/>
<path d="M72.8 39.3L74.9 37.2L65 27.3V0H51.0999V13.6L37.5 0L0.199951 37.2L2.29995 39.3L10.1 31.5V69.1H6.09995V72H70V69.1H64.9V31.5L72.8 39.3ZM62 69.1H13V28.5L37.5 4.1L62 28.5V69.1ZM62 24.4L54.0999 16.5V2.9H62V24.4Z" fill="#81B3D2"/>
<path d="M72.8 39.3L74.9 37.2L65 27.3V0H51.0999V13.6L37.5 0L0.199951 37.2L2.29995 39.3L10.1 31.5V69.1H6.09995V72H70V69.1H64.9V31.5L72.8 39.3ZM62 69.1H13V28.5L37.5 4.1L62 28.5V69.1ZM62 24.4L54.0999 16.5V2.9H62V24.4Z" fill="black" fill-opacity="0.2"/>
<path d="M29.8999 27.0999C29.8999 31.3999 33.3999 34.7999 37.5999 34.7999C41.8999 34.7999 45.3999 31.2999 45.3999 27.0999C45.3999 22.7999 41.8999 19.3999 37.5999 19.3999C33.3999 19.3999 29.8999 22.7999 29.8999 27.0999ZM37.6999 22.0999C40.3999 22.0999 42.6999 24.2999 42.6999 26.9999C42.6999 29.6999 40.4999 31.8999 37.6999 31.8999C34.9999 31.8999 32.6999 29.6999 32.6999 26.9999C32.6999 24.2999 34.8999 22.0999 37.6999 22.0999Z" fill="#81B3D2"/>
<path d="M20.1 41.2H17.1V45.0999H20.1V41.2Z" fill="#81B3D2"/>
<path d="M26 41.2H23V45.0999H26V41.2Z" fill="#81B3D2"/>
<path d="M20.1 47.2H17.1V51.0999H20.1V47.2Z" fill="#81B3D2"/>
<path d="M26 47.2H23V51.0999H26V47.2Z" fill="#81B3D2"/>
<path d="M52 41.2H49V45.0999H52V41.2Z" fill="#81B3D2"/>
<path d="M57.8999 41.2H54.8999V45.0999H57.8999V41.2Z" fill="#81B3D2"/>
<path d="M52 47.2H49V51.0999H52V47.2Z" fill="#81B3D2"/>
<path d="M57.8999 47.2H54.8999V51.0999H57.8999V47.2Z" fill="#81B3D2"/>
</svg>
